HIERARCHY
ROOT root
{
	OFFSET 0.000000 0.000000 0.000000
	CHANNELS 6 Xposition Yposition Zposition Zrotation Yrotation Xrotation
	JOINT lhip
	{
		OFFSET 0.058581 -0.082280 -0.017664
		CHANNELS 3 Zrotation Yrotation Xrotation
		JOINT lknee
		{
			OFFSET 0.043451 -0.386469 0.008037
			CHANNELS 3 Zrotation Yrotation Xrotation
			JOINT lankle
			{
				OFFSET -0.014790 -0.426874 -0.037428
				CHANNELS 3 Zrotation Yrotation Xrotation
				JOINT ltoe
				{
					OFFSET 0.041054 -0.060286 0.122042
					CHANNELS 3 Zrotation Yrotation Xrotation
					End Site
					{
						OFFSET 0.000000 0.000000 0.000000
					}
				}
			}
		}
	}
	JOINT rhip
	{
		OFFSET -0.060310 -0.090513 -0.013543
		CHANNELS 3 Zrotation Yrotation Xrotation
		JOINT rknee
		{
			OFFSET -0.043257 -0.383688 -0.004843
			CHANNELS 3 Zrotation Yrotation Xrotation
			JOINT rankle
			{
				OFFSET 0.019056 -0.420046 -0.034562
				CHANNELS 3 Zrotation Yrotation Xrotation
				JOINT rtoe
				{
					OFFSET -0.034840 -0.062106 0.130323
					CHANNELS 3 Zrotation Yrotation Xrotation
					End Site
					{
						OFFSET 0.000000 0.000000 0.000000
					}
				}
			}
		}
	}
	JOINT lowerback
	{
		OFFSET 0.004439 0.124404 -0.038385
		CHANNELS 3 Zrotation Yrotation Xrotation
		JOINT upperback
		{
			OFFSET 0.004488 0.137956 0.026820
			CHANNELS 3 Zrotation Yrotation Xrotation
			JOINT chest
			{
				OFFSET -0.002265 0.056032 0.002855
				CHANNELS 3 Zrotation Yrotation Xrotation
				JOINT lowerneck
				{
					OFFSET -0.013390 0.211636 -0.033468
					CHANNELS 3 Zrotation Yrotation Xrotation
					JOINT upperneck
					{
						OFFSET 0.010113 0.088937 0.050410
						CHANNELS 3 Zrotation Yrotation Xrotation
						End Site
						{
							OFFSET 0.000000 0.000000 0.000000
						}
					}
				}
				JOINT lclavicle
				{
					OFFSET 0.071702 0.114000 -0.018898
					CHANNELS 3 Zrotation Yrotation Xrotation
					JOINT lshoulder
					{
						OFFSET 0.122921 0.045205 -0.019046
						CHANNELS 3 Zrotation Yrotation Xrotation
						JOINT lelbow
						{
							OFFSET 0.255332 -0.015649 -0.022946
							CHANNELS 3 Zrotation Yrotation Xrotation
							JOINT lwrist
							{
								OFFSET 0.265709 0.012698 -0.007375
								CHANNELS 3 Zrotation Yrotation Xrotation
								End Site
								{
									OFFSET 0.000000 0.000000 0.000000
								}
							}
						}
					}
				}
				JOINT rclavicle
				{
					OFFSET -0.082954 0.112472 -0.023707
					CHANNELS 3 Zrotation Yrotation Xrotation
					JOINT rshoulder
					{
						OFFSET -0.113228 0.046853 -0.008472
						CHANNELS 3 Zrotation Yrotation Xrotation
						JOINT relbow
						{
							OFFSET -0.260127 -0.014369 -0.031269
							CHANNELS 3 Zrotation Yrotation Xrotation
							JOINT rwrist
							{
								OFFSET -0.269108 0.006794 -0.006027
								CHANNELS 3 Zrotation Yrotation Xrotation
								End Site
								{
									OFFSET 0.000000 0.000000 0.000000
								}
							}
						}
					}
				}
			}
		}
	}
}
MOTION
Frames: 8
Frame Time: 0.033333
-1.389158 0.214707 0.949063 84.999463 -2.399101 92.804654 6.216308 -1.124166 -29.753948 -4.700205 6.287899 16.653100 1.410274 10.821013 -13.793811 0.000000 -0.000000 0.000000 -4.046376 -6.581298 9.475631 1.707490 7.255459 9.674496 0.320587 -4.517679 -26.739369 0.000000 -0.000000 0.000000 2.536240 9.595841 18.312353 -1.209534 0.657538 -3.548123 -0.525528 2.536640 1.128610 1.346528 -1.958052 -13.026126 -0.001748 -12.181391 7.157601 -26.319892 3.541017 -0.879485 -57.288634 -2.912654 10.720047 4.074611 -31.299838 16.529208 -0.742083 -1.681094 -0.895550 25.047487 6.082940 0.476297 57.009886 5.142124 16.032249 -8.312403 24.987398 7.205380 -4.468123 1.456255 1.765969 
-1.359140 0.218673 0.942915 84.228698 -2.646287 93.452356 6.639867 -1.057162 -31.573459 -5.322911 7.205495 18.954517 1.717820 10.545456 -14.369078 0.000000 -0.000000 0.000000 -4.829682 -6.783157 10.456381 1.372213 7.545884 10.011369 0.426906 -4.594709 -26.886759 0.000000 -0.000000 0.000000 2.279629 10.551596 18.437639 -1.460101 1.002364 -3.421780 -0.564909 2.913670 1.139159 1.590769 -2.153825 -13.497127 -0.025666 -12.473260 7.096105 -26.197953 3.498747 -0.876677 -57.217113 -2.391296 10.502060 4.001981 -30.655138 16.789428 -0.685860 -1.624719 -0.857721 25.007708 6.779175 0.480494 56.827727 6.394226 16.076439 -8.284958 25.837404 7.193842 -4.734246 1.589004 1.978040 
-1.324953 0.224057 0.937261 83.592995 -3.085869 94.185708 6.837970 -1.584568 -32.984771 -6.323776 8.513291 23.076413 2.387407 10.257320 -16.151424 0.000000 -0.000000 0.000000 -6.087666 -6.961033 11.766109 1.052338 7.702657 10.110691 1.084167 -4.493170 -26.571007 0.000000 -0.000000 0.000000 1.990021 11.625171 18.221336 -1.766789 1.138725 -3.467496 -0.754630 3.140088 1.152615 1.823417 -2.448346 -13.569063 -0.045448 -12.486819 7.132483 -26.044867 3.655188 -0.881415 -57.051078 -1.661838 10.153433 3.997479 -29.886677 17.133167 -0.658641 -1.522967 -0.904190 24.974812 7.020451 0.501514 56.731488 7.371165 16.139354 -8.336180 27.423983 7.282253 -5.130190 1.661306 2.024786 
-1.286328 0.231489 0.933462 83.131550 -3.531224 95.162885 6.311395 -2.525481 -33.400583 -7.057712 9.188525 26.456104 3.722179 10.240929 -19.151847 0.000000 -0.000000 0.000000 -7.576939 -6.686879 12.899045 0.845815 7.921895 10.550492 2.560496 -4.072204 -25.049858 0.000000 -0.000000 0.000000 1.920789 12.453535 17.510377 -2.184895 1.382931 -3.703980 -1.147491 3.289101 1.218608 1.987230 -2.922786 -13.367521 -0.220294 -12.333464 7.210888 -26.038448 4.154955 -1.026840 -56.810580 -0.852049 9.772162 4.208916 -28.920733 17.291623 -0.598636 -1.376921 -0.693083 24.939397 6.621669 0.336694 56.771391 7.679346 16.343228 -8.640037 29.625472 7.184923 -5.585700 1.757831 2.007374 
-1.243430 0.241229 0.932908 83.283703 -3.897634 96.370743 4.454715 -3.410687 -32.628558 -7.025376 8.090000 27.796209 5.548791 10.668327 -21.609750 0.000000 -0.000000 0.000000 -8.671740 -6.049502 12.984115 0.555754 7.737502 12.717976 4.664394 -3.805247 -21.788289 0.000000 -0.000000 0.000000 1.986754 12.495430 16.434865 -2.586011 1.715686 -4.298610 -1.631387 3.326702 1.258048 2.155285 -3.655889 -12.926921 -0.613639 -12.039731 7.455062 -26.259379 5.256252 -1.300538 -56.603611 -0.094866 9.357019 4.702631 -27.752931 16.895976 -0.580983 -0.951201 -0.111740 24.952615 5.634212 -0.113091 56.947062 7.343065 16.767885 -9.063541 31.244484 6.567855 -5.987224 2.030873 2.085905 
-1.196928 0.252297 0.937055 84.256665 -4.368890 97.425023 2.010705 -4.557733 -30.651390 -6.852401 6.216528 27.700325 7.414516 11.272954 -23.251675 0.000000 -0.000000 0.000000 -9.260099 -5.736142 10.908781 0.161907 6.840596 19.028154 7.109973 -4.039253 -15.952925 0.000000 -0.000000 0.000000 1.811897 11.870078 15.203590 -2.697974 1.861231 -4.809335 -2.002420 3.019501 1.380469 2.260735 -4.388182 -12.674809 -1.012212 -11.320965 7.631178 -26.682925 6.484366 -1.597127 -56.646210 0.330868 8.938444 5.625377 -26.110956 15.657307 -0.648742 -0.589340 0.402731 25.182264 4.416587 -0.834853 57.063490 6.701867 17.312412 -9.730648 31.402796 5.163197 -6.046456 2.229228 2.163709 
-1.148177 0.263654 0.945217 86.199822 -4.827513 97.690954 -0.346932 -5.685811 -26.959656 -6.681147 4.085466 25.865124 9.333074 11.964749 -22.662299 0.000000 -0.000000 0.000000 -8.707818 -4.752632 5.788021 -0.365503 5.173223 31.031242 8.807927 -6.105955 -5.798107 0.000000 -0.000000 0.000000 1.150524 10.110485 14.349792 -2.182482 2.067819 -5.111811 -2.041034 2.400037 1.686048 2.362204 -5.226503 -12.595459 -1.418802 -10.147670 7.781219 -26.965968 7.469636 -1.605717 -57.258882 0.161397 8.752725 6.661860 -24.004727 14.156297 -1.403579 -0.546910 0.168433 25.370198 3.160124 -1.621267 57.141803 6.035643 18.117869 -10.660586 30.172218 2.901398 -5.645504 2.136336 1.864257 
-1.097581 0.273575 0.953848 88.674839 -4.973101 96.787231 -2.634663 -5.588199 -21.385650 -6.334056 0.905130 23.014705 11.884188 12.517735 -20.730018 0.000000 -0.000000 0.000000 -7.181539 -2.251261 -0.986696 0.305052 4.034889 45.753954 7.116673 -8.825323 5.951949 0.000000 -0.000000 0.000000 0.093099 7.059410 14.283756 -1.246081 2.597506 -5.109773 -1.682233 1.647759 2.149651 2.573427 -5.940975 -12.195015 -1.845915 -8.904417 7.914588 -26.740861 7.961830 -1.020805 -58.098260 -0.315328 8.786280 7.113923 -22.464756 13.769183 -2.881597 -0.541305 -0.869119 25.490272 2.245499 -2.053289 57.079252 5.460126 18.851950 -11.303987 28.517715 1.151471 -4.822371 1.938210 1.192650 
